<svg version="1.1" id="Selected_Items" xmlns="http://www.w3.org/2000/svg" xmlns:xlink="http://www.w3.org/1999/xlink" x="0px"
	 y="0px" width="139.034px" height="37.013px" viewBox="205.969 181.992 139.034 37.013"
	 enable-background="new 205.969 181.992 139.034 37.013" xml:space="preserve">
<path fill="#FFFFFF" d="M207.299,210.027h6.833v1.22h-2.771v7.683h-1.366v-7.683h-2.697L207.299,210.027L207.299,210.027z
	 M222.517,211.173v2.66h4.322v1.034h-4.322v2.918h4.543v1.145h-5.91v-8.9h5.873v1.145L222.517,211.173L222.517,211.173z
	 M239.583,210.027c0.271,0.05,0.529,0.136,0.775,0.259c0.493,0.296,0.776,0.825,0.85,1.589c0.024,0.271,0.049,0.604,0.073,0.997
	h-1.366c0-0.788-0.111-1.28-0.333-1.478c-0.172-0.172-0.665-0.26-1.478-0.26c-1.207,0-1.945,0.111-2.216,0.333
	c-0.295,0.222-0.443,0.8-0.443,1.735c0,1.429,0.024,2.363,0.074,2.808c0.025,0.493,0.086,0.851,0.185,1.071
	c0.098,0.296,0.283,0.492,0.554,0.591s0.751,0.147,1.441,0.147c1.01,0,1.649-0.086,1.92-0.258c0.271-0.174,0.407-0.604,0.407-1.293
	v-0.406h1.33v0.295c0,0.641-0.037,1.097-0.111,1.367c-0.074,0.295-0.209,0.554-0.406,0.774c-0.271,0.32-0.677,0.519-1.219,0.593
	c-0.32,0.072-0.973,0.109-1.958,0.109c-0.665,0-1.157-0.023-1.478-0.074c-0.32-0.049-0.615-0.146-0.886-0.295
	c-0.37-0.197-0.653-0.468-0.85-0.813c-0.172-0.346-0.283-0.825-0.332-1.441c-0.074-0.541-0.111-1.354-0.111-2.438
	c0-1.035,0.049-1.762,0.147-2.181c0.124-0.418,0.333-0.763,0.628-1.034c0.32-0.318,0.702-0.529,1.145-0.627
	c0.468-0.1,1.231-0.147,2.291-0.147C238.832,209.954,239.287,209.979,239.583,210.027z M205.969,186.425v-4.433h12.559v4.433h-3.657
	v13.297h5.356c0.887,0,1.576-0.098,2.068-0.295c0.493-0.197,0.887-0.529,1.182-0.997c0.295-0.468,0.493-1.084,0.591-1.847
	c0.123-0.763,0.185-2.007,0.185-3.73c0-1.601-0.049-2.771-0.148-3.509c-0.123-0.764-0.32-1.342-0.591-1.736
	c-0.271-0.419-0.653-0.714-1.145-0.887c-0.468-0.197-1.133-0.295-1.995-0.295h-0.813v-4.433h1.441c2.979,0,5.134,0.689,6.464,2.068
	c1.305,1.354,1.958,3.571,1.958,6.649c0,3.152-0.049,5.369-0.147,6.649c-0.123,1.28-0.357,2.302-0.702,3.066
	c-0.616,1.306-1.527,2.241-2.734,2.808c-1.207,0.591-2.856,0.887-4.949,0.887h-11.119v-17.693L205.969,186.425L205.969,186.425z
	 M327.161,210.027c0.321,0.05,0.641,0.16,0.961,0.332c0.345,0.246,0.579,0.604,0.702,1.072c0.049,0.368,0.072,0.774,0.072,1.219
	h-1.365c0-0.715-0.123-1.146-0.37-1.293c-0.245-0.172-0.937-0.26-2.068-0.26c-0.714,0-1.219,0.051-1.514,0.148
	c-0.296,0.1-0.505,0.283-0.628,0.554c-0.074,0.197-0.137,0.468-0.186,0.813c-0.023,0.32-0.037,0.937-0.037,1.848
	c0,0.936,0.014,1.575,0.037,1.92c0.049,0.32,0.11,0.579,0.186,0.776c0.123,0.271,0.355,0.454,0.701,0.554
	c0.32,0.1,0.875,0.146,1.662,0.146c0.541,0,0.947-0.023,1.22-0.072c0.271-0.051,0.479-0.123,0.627-0.223
	c0.271-0.196,0.407-0.775,0.407-1.735v-0.406h-2.512v-1.071h3.84c0.024,0.271,0.037,0.629,0.037,1.071
	c0,0.813-0.023,1.379-0.072,1.699c-0.051,0.319-0.137,0.604-0.26,0.851c-0.246,0.442-0.627,0.727-1.146,0.85
	c-0.394,0.123-1.17,0.185-2.327,0.185c-0.615,0-1.096-0.024-1.439-0.073c-0.32-0.024-0.604-0.1-0.851-0.223
	c-0.345-0.123-0.614-0.309-0.813-0.555c-0.221-0.221-0.381-0.528-0.479-0.924c-0.123-0.369-0.185-1.008-0.185-1.92
	c0-1.231,0.013-2.02,0.037-2.363c0-0.346,0.037-0.689,0.109-1.034c0.223-0.961,0.764-1.563,1.626-1.812
	c0.369-0.099,1.06-0.146,2.068-0.146C326.164,209.954,326.816,209.979,327.161,210.027z M341.643,210.027h1.625l-3.326,5.355v3.547
	h-1.365v-3.547l-3.251-5.355h1.589l2.363,3.953l0.406-0.629c0.073-0.172,0.197-0.395,0.369-0.664L341.643,210.027z M248.558,210.027
	h1.367v3.769h4.617v-3.769h1.367v8.902h-1.367v-3.99h-4.617v3.99h-1.367V210.027z M249.519,199.981v4.395h-14.812v-22.014h5.061
	v17.619H249.519z M265.845,210.027l2.771,4.912c0.124,0.197,0.641,1.134,1.552,2.809h0.037l-0.037-7.721h1.367v8.902h-2.291
	l-4.285-7.721h-0.074l0.074,7.721h-1.367v-8.902H265.845z M281.025,211.284c-0.271,0.123-0.467,0.356-0.59,0.7
	c-0.074,0.246-0.123,0.48-0.147,0.703c-0.024,0.271-0.037,0.873-0.037,1.81c0,1.084,0.024,1.785,0.073,2.104
	c0.099,0.543,0.333,0.899,0.701,1.071c0.297,0.099,0.888,0.147,1.773,0.147c0.592,0,1.021-0.012,1.293-0.036
	c0.246-0.05,0.443-0.136,0.592-0.259c0.394-0.246,0.59-0.862,0.59-1.848v-2.476c0-0.984-0.209-1.601-0.627-1.847
	c-0.174-0.1-0.383-0.16-0.629-0.186c-0.271-0.023-0.738-0.037-1.402-0.037C281.827,211.137,281.298,211.186,281.025,211.284z
	 M282.8,209.954c1.134,0,1.933,0.099,2.4,0.296c0.739,0.318,1.194,1.009,1.366,2.068c0.05,0.32,0.074,0.983,0.074,1.994
	c0,0.861-0.013,1.465-0.037,1.811c-0.024,0.318-0.062,0.652-0.11,0.997c-0.173,0.764-0.591,1.293-1.257,1.588
	c-0.271,0.123-0.59,0.196-0.959,0.222c-0.32,0.051-0.801,0.074-1.441,0.074c-0.738,0-1.279-0.023-1.625-0.074
	c-0.32-0.049-0.628-0.135-0.923-0.259c-0.642-0.271-1.047-0.787-1.22-1.551c-0.073-0.32-0.123-0.628-0.147-0.925
	c-0.024-0.319-0.036-0.885-0.036-1.698c0-1.083,0.036-1.834,0.11-2.253c0.049-0.419,0.172-0.801,0.368-1.146
	c0.32-0.541,0.863-0.886,1.625-1.033C281.334,209.991,281.938,209.954,282.8,209.954z M306.551,212.244
	c0.073-0.419,0.209-0.801,0.406-1.146c0.32-0.541,0.85-0.886,1.588-1.033c0.37-0.073,0.984-0.11,1.848-0.11
	c1.156,0,1.957,0.099,2.4,0.296c0.739,0.318,1.193,1.009,1.367,2.068c0.049,0.32,0.072,0.983,0.072,1.994
	c0,0.861-0.012,1.465-0.037,1.811c-0.023,0.318-0.072,0.652-0.146,0.997c-0.172,0.764-0.591,1.293-1.256,1.588
	c-0.271,0.123-0.578,0.196-0.924,0.222c-0.32,0.051-0.801,0.074-1.439,0.074c-0.738,0-1.281-0.023-1.625-0.074
	c-0.346-0.049-0.666-0.135-0.961-0.259c-0.615-0.271-1.01-0.787-1.183-1.551c-0.073-0.32-0.136-0.628-0.185-0.925
	c0-0.319,0-0.885,0-1.698C306.477,213.414,306.501,212.663,306.551,212.244z M307.881,212.688c-0.025,0.271-0.037,0.875-0.037,1.811
	c0,1.084,0.024,1.785,0.073,2.105c0.074,0.541,0.296,0.898,0.665,1.07c0.32,0.1,0.911,0.148,1.771,0.148
	c0.617,0,1.047-0.014,1.293-0.037c0.271-0.051,0.48-0.137,0.629-0.26c0.395-0.271,0.592-0.887,0.592-1.846v-2.477
	c0-0.984-0.21-1.6-0.628-1.848c-0.173-0.099-0.396-0.16-0.665-0.185c-0.246-0.024-0.702-0.037-1.367-0.037
	c-0.788,0-1.316,0.05-1.588,0.148c-0.296,0.122-0.505,0.356-0.628,0.7C307.917,212.23,307.881,212.466,307.881,212.688z
	 M294.064,210.027h1.33v7.646h4.358v1.256h-5.688V210.027z M277.296,196.989v-14.627h5.062v14.627c0,1.379,0.271,2.266,0.813,2.66
	c0.518,0.369,1.736,0.554,3.657,0.554c1.797,0,2.93-0.209,3.397-0.628c0.492-0.394,0.738-1.33,0.738-2.807v-14.405h5.061v14.258
	c0,0.32-0.012,0.813-0.037,1.477c-0.049,0.69-0.098,1.207-0.146,1.552c-0.074,0.837-0.345,1.601-0.813,2.29
	c-0.469,0.715-1.084,1.27-1.848,1.662c-0.688,0.369-1.478,0.616-2.363,0.739c-0.861,0.147-2.217,0.222-4.063,0.222
	c-1.724,0-3.041-0.062-3.951-0.186c-0.962-0.123-1.773-0.332-2.438-0.627c-1.183-0.518-1.994-1.257-2.438-2.217
	C277.505,200.572,277.296,199.058,277.296,196.989z M260.083,186.72c-0.493,0.099-0.911,0.295-1.256,0.591
	c-0.443,0.394-0.714,0.972-0.812,1.736c-0.124,0.788-0.185,2.462-0.185,5.023c0,1.749,0.049,2.967,0.148,3.657
	c0.123,0.665,0.357,1.207,0.702,1.625c0.271,0.345,0.714,0.566,1.33,0.665c0.566,0.124,1.564,0.185,2.992,0.185
	c1.379,0,2.339-0.123,2.881-0.37c0.542-0.222,0.948-0.689,1.219-1.403c0.172-0.468,0.283-1.022,0.333-1.663
	c0.049-0.616,0.074-1.773,0.074-3.472c0-2.191-0.049-3.607-0.147-4.248c-0.099-0.641-0.345-1.194-0.739-1.663
	c-0.271-0.32-0.678-0.541-1.219-0.665c-0.566-0.099-1.515-0.147-2.844-0.147C261.425,186.573,260.6,186.622,260.083,186.72z
	 M258.199,182.546c0.96-0.222,2.536-0.333,4.728-0.333c1.551,0,2.758,0.062,3.62,0.185c0.837,0.099,1.588,0.283,2.253,0.554
	c1.01,0.468,1.811,1.096,2.401,1.884c0.616,0.813,1.034,1.834,1.256,3.066c0.172,0.887,0.259,2.708,0.259,5.467
	c0,2.462-0.086,4.223-0.259,5.282c-0.148,1.059-0.456,1.996-0.923,2.807c-0.862,1.403-2.315,2.327-4.359,2.771
	c-1.083,0.223-2.659,0.332-4.728,0.332c-1.724,0-3.066-0.086-4.026-0.258c-0.985-0.173-1.823-0.455-2.512-0.85
	c-0.862-0.492-1.54-1.107-2.032-1.848c-0.468-0.738-0.8-1.674-0.998-2.808c-0.148-0.985-0.221-2.487-0.221-4.506
	c0-2.881,0.086-4.937,0.258-6.169c0.172-1.231,0.529-2.241,1.071-3.028c0.418-0.616,0.997-1.146,1.736-1.589
	C256.487,183.039,257.313,182.719,258.199,182.546z M315.342,191.005v-8.644h5.061v22.014h-5.061V195.4h-8.902v8.976h-5.097v-22.014
	h5.097v8.644L315.342,191.005L315.342,191.005z M334.477,191.301c0.887-1.773,1.551-3.079,1.994-3.916l2.659-5.023h5.873l-8.09,14
	v8.015h-5.06v-8.015l-7.869-14h5.8l2.659,5.023c0.32,0.567,0.947,1.872,1.885,3.916H334.477z"/>
</svg>